<svg xmlns="http://www.w3.org/2000/svg" width="182.815" height="777.712" viewBox="0 0 182.815 777.712">
  <g id="Group_3025" data-name="Group 3025" transform="translate(-92.5 -5260.725)">
    <g id="Line_2" data-name="Line 2" transform="translate(93.791 5260.725)" fill="none">
      <path d="M0,1.023H31.983" stroke="none"/>
      <path d="M 31.98283195495605 2.046901226043701 L -1.818013496229743e-15 2.046901226043701 L -1.818013496229743e-15 0 L 31.98283195495605 0 L 31.98283195495605 2.046901226043701 Z" stroke="none" fill="#ff0"/>
    </g>
    <g id="Line_3" data-name="Line 3" transform="translate(236.69 5382.45)" fill="none">
      <path d="M0,1.023H31.983" stroke="none"/>
      <path d="M 31.98283195495605 2.046901226043701 L -1.818013496229743e-15 2.046901226043701 L -1.818013496229743e-15 0 L 31.98283195495605 0 L 31.98283195495605 2.046901226043701 Z" stroke="none" fill="#ff0"/>
    </g>
    <g id="Line_4" data-name="Line 4" transform="translate(93.407 5531.92)" fill="none">
      <path d="M0,1.023H31.983" stroke="none"/>
      <path d="M 31.98283195495605 2.046901226043701 L -1.818013496229743e-15 2.046901226043701 L -1.818013496229743e-15 0 L 31.98283195495605 0 L 31.98283195495605 2.046901226043701 Z" stroke="none" fill="#ff0"/>
    </g>
    <g id="Line_5" data-name="Line 5" transform="translate(236.434 5669.917)" fill="none">
      <path d="M0,1.023H31.983" stroke="none"/>
      <path d="M 31.98283195495605 2.046901226043701 L -1.818013496229743e-15 2.046901226043701 L -1.818013496229743e-15 0 L 31.98283195495605 0 L 31.98283195495605 2.046901226043701 Z" stroke="none" fill="#ff0"/>
    </g>
    <g id="Line_6" data-name="Line 6" transform="translate(104.328 5788.044)" fill="none">
      <path d="M0,1.023H34.03" stroke="none"/>
      <path d="M 34.02973175048828 2.046901226043701 L 0 2.046901226043701 L 0 0 L 34.02973175048828 0 L 34.02973175048828 2.046901226043701 Z" stroke="none" fill="#ff0"/>
    </g>
    <g id="Line_8" data-name="Line 8" transform="translate(236.434 5910.427)" fill="none">
      <path d="M0,1.023H31.983" stroke="none"/>
      <path d="M 31.98283195495605 2.046901226043701 L -1.818013496229743e-15 2.046901226043701 L -1.818013496229743e-15 0 L 31.98283195495605 0 L 31.98283195495605 2.046901226043701 Z" stroke="none" fill="#ff0"/>
    </g>
    <line id="Line_9" data-name="Line 9" y2="94" transform="translate(93.5 5262.148)" fill="none" stroke="#fd0" stroke-width="2"/>
    <line id="Line_10" data-name="Line 10" x1="174" transform="translate(93.5 5354.5)" fill="none" stroke="#fd0" stroke-width="2"/>
    <line id="Line_11" data-name="Line 11" y2="137" transform="translate(267.5 5354.5)" fill="none" stroke="#fd0" stroke-width="2"/>
    <line id="Line_12" data-name="Line 12" x2="174" y2="1" transform="translate(93.5 5490.5)" fill="none" stroke="#fd0" stroke-width="2"/>
    <line id="Line_13" data-name="Line 13" y2="145" transform="translate(93.5 5490.5)" fill="none" stroke="#fd0" stroke-width="2"/>
    <line id="Line_14" data-name="Line 14" x1="174" transform="translate(93.5 5635.5)" fill="none" stroke="#fd0" stroke-width="2"/>
    <line id="Line_15" data-name="Line 15" y2="124" transform="translate(267.5 5635.5)" fill="none" stroke="#fd0" stroke-width="2"/>
    <line id="Line_16" data-name="Line 16" x2="164" transform="translate(103.5 5759.5)" fill="none" stroke="#fd0" stroke-width="2"/>
    <line id="Line_17" data-name="Line 17" y2="121" transform="translate(103.5 5759.5)" fill="none" stroke="#fd0" stroke-width="2"/>
    <line id="Line_18" data-name="Line 18" x1="164" transform="translate(103.5 5880.5)" fill="none" stroke="#fd0" stroke-width="2"/>
    <line id="Line_19" data-name="Line 19" y2="115" transform="translate(267.5 5880.5)" fill="none" stroke="#fd0" stroke-width="2"/>
    <g id="Path_2875" data-name="Path 2875" transform="translate(275.315 6038.437) rotate(180)" fill="#fff707">
      <path d="M 15.04386901855469 48.87946319580078 L 0.5853436589241028 48.87946319580078 L 7.814606666564941 3.198732137680054 L 8.225525856018066 5.795273303985596 L 12.03309631347656 29.85480308532715 L 15.04386901855469 48.87946319580078 Z" stroke="none"/>
      <path d="M 7.814606666564941 6.397514343261719 L 1.170699119567871 48.37946319580078 L 14.4585132598877 48.37946319580078 L 7.814606666564941 6.397514343261719 M 7.814606189727783 3.814697265625e-06 L 15.62921619415283 49.37946319580078 L -3.814697265625e-06 49.37946319580078 L 7.814606189727783 3.814697265625e-06 Z" stroke="none" fill="#707070"/>
    </g>
  </g>
</svg>
